<svg width="177" height="21" viewBox="0 0 177 21" fill="none" xmlns="http://www.w3.org/2000/svg">
<g clip-path="url(#clip0_18_3448)">
<path d="M0 0.799805H20V20.7998H0V0.799805Z" fill="#293381"/>
<path fill-rule="evenodd" clip-rule="evenodd" d="M18.26 15.4921H16.975C16.925 15.1768 16.875 14.8768 16.845 14.5691C16.8466 14.5154 16.8402 14.4619 16.8264 14.4126C16.8125 14.3633 16.7915 14.3194 16.765 14.2845C16.7407 14.2516 16.7119 14.2277 16.6807 14.2143C16.6496 14.201 16.6168 14.1987 16.585 14.2075C16.105 14.2306 15.63 14.2075 15.15 14.2306C15.0963 14.2508 15.0461 14.2888 15.0029 14.342C14.9597 14.3951 14.9246 14.4621 14.9 14.5383C14.805 14.846 14.73 15.1691 14.66 15.4921H13.205C13.245 15.3229 13.275 15.1691 13.315 15.0306L15.26 7.70753C15.3082 7.44918 15.4135 7.2248 15.5577 7.07313C15.7019 6.92146 15.8761 6.85201 16.05 6.87676C16.4 6.89984 16.75 6.87676 17.12 6.87676L18.26 15.4921ZM0.700012 6.94599C0.780012 6.91522 0.865012 6.89215 0.945012 6.87676H3.04001C3.22001 6.8383 3.40501 6.91522 3.55001 7.10753C3.69501 7.28446 3.78001 7.56138 3.79501 7.85369L4.34001 12.3768L4.38501 12.6845L4.51501 12.2691C4.93501 10.6075 5.35501 8.94599 5.76501 7.28446C5.83501 6.99215 5.91501 6.85369 6.13001 6.86907C6.52001 6.89984 6.91001 6.87676 7.35001 6.87676L6.72501 9.24599C6.20501 11.1998 5.67501 13.1537 5.16501 15.1152C5.14358 15.2474 5.09039 15.3621 5.01617 15.4363C4.94195 15.5105 4.85221 15.5387 4.76501 15.5152C4.37501 15.4921 3.98501 15.5152 3.56501 15.5152L3.08501 12.6383C2.87001 11.346 2.65001 10.0537 2.45501 8.75369C2.43014 8.51123 2.36242 8.28397 2.25924 8.09675C2.15607 7.90952 2.02142 7.76955 1.87001 7.69215C1.48501 7.47676 1.09501 7.28446 0.710012 7.07676L0.700012 6.95369V6.94599ZM13.495 7.1383L13.265 8.83061C12.95 8.69984 12.635 8.59984 12.31 8.5383C12.0451 8.50644 11.7789 8.5642 11.53 8.70753C11.18 8.92292 11.16 9.4383 11.46 9.79215C11.64 9.99215 11.83 10.1691 12.025 10.3306L12.445 10.7075C12.6879 10.9233 12.8894 11.234 13.029 11.6082C13.1686 11.9824 13.2414 12.4068 13.24 12.8383C13.24 13.7306 12.94 14.5537 12.445 14.9768C11.7476 15.5845 10.9331 15.7943 10.145 15.5691C9.88969 15.5151 9.63846 15.4223 9.39501 15.2921C9.35257 15.2556 9.31667 15.2034 9.2905 15.1404C9.26433 15.0773 9.2487 15.0052 9.24501 14.9306C9.29501 14.4075 9.38001 13.8998 9.44501 13.4306C9.88001 13.5768 10.3 13.7537 10.73 13.8383C10.9663 13.8723 11.2045 13.8196 11.425 13.6845C11.5149 13.6529 11.596 13.5788 11.657 13.4725C11.718 13.3663 11.7558 13.2332 11.765 13.0921C11.7783 12.9522 11.7633 12.8093 11.7222 12.6828C11.6811 12.5562 11.6158 12.4521 11.535 12.3845C11.39 12.2306 11.245 12.0921 11.09 11.9691C10.845 11.7691 10.61 11.5383 10.38 11.2921C10.2086 11.0988 10.0665 10.8505 9.96348 10.5645C9.86047 10.2784 9.799 9.96141 9.78331 9.6353C9.76763 9.30918 9.7981 8.9817 9.87263 8.67545C9.94716 8.3692 10.064 8.09146 10.215 7.86138C10.5431 7.33186 10.9721 6.97631 11.44 6.84599C12.1285 6.622 12.8449 6.72391 13.495 7.1383ZM8.21501 15.4921H6.80001L7.97001 6.90753H9.37501L8.21501 15.4921ZM16.15 9.36907L16.56 12.446H15.37L16.085 9.34599L16.155 9.36907H16.15Z" fill="white"/>
</g>
<g clip-path="url(#clip1_18_3448)">
<path d="M30 0.799805H50V20.7998H30V0.799805Z" fill="white"/>
<path d="M38.065 15.6382H41.935V5.95361H38.065V15.6305V15.6382Z" fill="#F06022"/>
<path d="M38.465 10.7998C38.4632 9.86638 38.6006 8.94477 38.8667 8.10593C39.1329 7.26709 39.5206 6.53339 40 5.96134C39.227 5.02539 38.2574 4.55917 37.2756 4.65136C36.2938 4.74355 35.3682 5.38772 34.675 6.46134C34.3037 7.03024 34.0091 7.70635 33.808 8.45085C33.607 9.19536 33.5035 9.99361 33.5035 10.7998C33.5035 11.606 33.607 12.4042 33.808 13.1487C34.0091 13.8933 34.3037 14.5694 34.675 15.1383C35.3682 16.2119 36.2938 16.8561 37.2756 16.9482C38.2574 17.0404 39.227 16.5742 40 15.6383C39.5231 15.0627 39.1372 14.3283 38.8713 13.4902C38.6054 12.6522 38.4665 11.7323 38.465 10.7998Z" fill="#EA1D25"/>
<path d="M46.5 10.7997C46.5 12.4305 46.08 13.9921 45.33 15.1459C44.6315 16.2084 43.7057 16.8442 42.7252 16.9348C41.7447 17.0253 40.7761 16.5645 40 15.6382C40.4761 15.0615 40.8614 14.3268 41.1272 13.4891C41.393 12.6513 41.5324 11.732 41.535 10.7997C41.5357 9.86662 41.3978 8.9456 41.1317 8.10703C40.8657 7.26846 40.4786 6.53452 40 5.96128C40.7727 5.02219 41.743 4.55336 42.726 4.64415C43.709 4.73494 44.6359 5.37901 45.33 6.45359C45.7023 7.02282 45.9974 7.70011 46.1983 8.44618C46.3991 9.19224 46.5017 9.99223 46.5 10.7997Z" fill="#F79D1D"/>
</g>
<g clip-path="url(#clip2_18_3448)">
<path d="M60 0.799805H80V20.7998H60V0.799805Z" fill="white"/>
<path d="M68.065 15.6382H71.935V5.95361H68.065V15.6305V15.6382Z" fill="#7773B4"/>
<path d="M68.465 10.7998C68.4632 9.86638 68.6006 8.94477 68.8667 8.10593C69.1329 7.26709 69.5206 6.53339 70 5.96134C69.227 5.02539 68.2574 4.55917 67.2756 4.65136C66.2938 4.74355 65.3682 5.38772 64.675 6.46134C64.3037 7.03024 64.0091 7.70635 63.808 8.45085C63.607 9.19536 63.5035 9.99361 63.5035 10.7998C63.5035 11.606 63.607 12.4042 63.808 13.1487C64.0091 13.8933 64.3037 14.5694 64.675 15.1383C65.3682 16.2119 66.2938 16.8561 67.2756 16.9482C68.2574 17.0404 69.227 16.5742 70 15.6383C69.5231 15.0627 69.1372 14.3283 68.8713 13.4902C68.6054 12.6522 68.4665 11.7323 68.465 10.7998Z" fill="#EA1D25"/>
<path d="M76.5 10.7997C76.5 12.4305 76.08 13.9921 75.33 15.1459C74.6315 16.2084 73.7057 16.8442 72.7252 16.9348C71.7447 17.0253 70.7761 16.5645 70 15.6382C70.4761 15.0615 70.8614 14.3268 71.1272 13.4891C71.393 12.6513 71.5324 11.732 71.535 10.7997C71.5357 9.86662 71.3978 8.9456 71.1317 8.10703C70.8657 7.26846 70.4786 6.53452 70 5.96128C70.7727 5.02219 71.743 4.55336 72.726 4.64415C73.709 4.73494 74.6359 5.37901 75.33 6.45359C75.7023 7.02282 75.9974 7.70011 76.1983 8.44618C76.3991 9.19224 76.5017 9.99223 76.5 10.7997Z" fill="#139FDA"/>
</g>
<g clip-path="url(#clip3_18_3448)">
<mask id="mask0_18_3448" style="mask-type:luminance" maskUnits="userSpaceOnUse" x="90" y="0" width="20" height="21">
<path d="M110 0.799805H90V20.7998H110V0.799805Z" fill="white"/>
</mask>
<g mask="url(#mask0_18_3448)">
<path d="M106.966 2.35648C105.878 1.30469 103.91 0.85376 101.392 0.85376H94.0862C93.8371 0.853768 93.5962 0.929093 93.4068 1.0662C93.2173 1.2033 93.0918 1.39318 93.0528 1.60171L90.0106 17.9571C89.9501 18.2797 90.2448 18.5717 90.6304 18.5717H95.141L96.2738 12.4809L96.2387 12.6716C96.3194 12.2411 96.7537 11.9236 97.2681 11.9236H99.4116C103.622 11.9236 106.919 10.4738 107.883 6.27979C107.911 6.15575 107.936 6.03502 107.957 5.91707C107.836 5.8625 107.836 5.8625 107.957 5.91707C108.244 4.36694 107.955 3.31177 106.966 2.35648Z" fill="#27346A"/>
<path d="M97.9998 5.35866C98.123 5.30889 98.258 5.28309 98.3945 5.28316H104.122C104.801 5.28316 105.433 5.32058 106.012 5.39946C106.173 5.42132 106.334 5.44742 106.494 5.47773C106.721 5.52012 106.945 5.57199 107.165 5.63316C107.449 5.71363 107.714 5.80734 107.957 5.91707C108.244 4.36634 107.955 3.31177 106.966 2.35648C105.877 1.30469 103.91 0.85376 101.392 0.85376H94.0855C93.5711 0.85376 93.1334 1.17124 93.0528 1.60171L90.0106 17.9565C89.9501 18.2796 90.2448 18.5712 90.6298 18.5712H95.141L97.4912 5.93747C97.5143 5.81329 97.5727 5.69573 97.6613 5.5949C97.7499 5.49408 97.866 5.413 97.9998 5.35866Z" fill="#27346A"/>
<path d="M107.883 6.27971C106.919 10.4731 103.622 11.9235 99.4116 11.9235H97.2675C96.7532 11.9235 96.3187 12.241 96.2388 12.6716L94.8295 20.2447C94.7768 20.527 95.0343 20.7828 95.3712 20.7828H99.1735C99.3914 20.7827 99.602 20.7168 99.7676 20.5969C99.9332 20.4769 100.043 20.3108 100.077 20.1284L100.114 19.9642L100.831 16.1141L100.877 15.9014C100.911 15.719 101.02 15.553 101.186 15.433C101.352 15.3131 101.562 15.2471 101.78 15.2471H102.349C106.032 15.2471 108.917 13.9786 109.759 10.31C110.111 8.77686 109.929 7.49686 108.999 6.59779C108.716 6.32547 108.366 6.10057 107.957 5.91699C107.935 6.03554 107.911 6.15567 107.883 6.27971Z" fill="#2790C3"/>
<path d="M106.949 5.57627C106.799 5.5391 106.648 5.50619 106.495 5.4776C106.335 5.44778 106.174 5.42185 106.012 5.39985C105.434 5.32044 104.801 5.28296 104.122 5.28296H98.3952C98.2585 5.2827 98.1235 5.30872 98.0004 5.35905C97.8665 5.41323 97.7502 5.49425 97.6616 5.59511C97.573 5.69597 97.5147 5.81361 97.4918 5.93786L96.2745 12.4808L96.2393 12.6715C96.3194 12.241 96.7538 11.9234 97.2682 11.9234H99.4123C103.623 11.9234 106.92 10.4736 107.883 6.27965C107.912 6.15561 107.936 6.03541 107.958 5.91693C107.714 5.8078 107.45 5.71349 107.166 5.63356C107.094 5.6134 107.022 5.5943 106.949 5.57627" fill="#1F264F"/>
</g>
</g>
<g clip-path="url(#clip4_18_3448)">
<mask id="mask1_18_3448" style="mask-type:luminance" maskUnits="userSpaceOnUse" x="120" y="0" width="27" height="21">
<path d="M147 0.799805H120V20.7998H147V0.799805Z" fill="white"/>
</mask>
<g mask="url(#mask1_18_3448)">
<path d="M124.933 3.36881C124.617 4.0418 124.111 4.57279 123.604 4.49687C123.541 3.58692 123.789 2.6199 124.079 2.02265C124.395 1.33071 124.949 0.837719 125.398 0.799805C125.45 1.74777 125.245 2.67677 124.933 3.36881ZM125.392 4.67706C124.659 4.60123 124.032 5.42588 123.683 5.42588C123.33 5.42588 122.797 4.71497 122.217 4.73393C121.463 4.75289 120.762 5.52066 120.377 6.74362C119.586 9.18938 120.171 12.8107 120.936 14.8014C121.31 15.7873 121.758 16.868 122.349 16.8301C122.908 16.7921 123.13 16.176 123.805 16.176C124.485 16.176 124.68 16.8301 125.271 16.8111C125.883 16.7921 126.268 15.8253 126.642 14.8393C127.069 13.7208 127.243 12.6305 127.254 12.5736C127.243 12.5547 126.073 11.749 126.062 9.32207C126.052 7.29348 126.985 6.32655 127.027 6.26967C126.5 4.86663 125.677 4.71497 125.392 4.67706ZM129.627 1.92786V16.7069H130.904V11.6542H132.67C134.284 11.6542 135.418 9.66353 135.418 6.78162C135.418 3.89981 134.305 1.92796 132.713 1.92796L129.627 1.92786ZM130.904 3.8618H132.375C133.483 3.8618 134.116 4.92351 134.116 6.79099C134.116 8.6585 133.483 9.72977 132.37 9.72977H130.904V3.8618ZM137.749 16.8206C138.551 16.8206 139.295 16.0907 139.632 14.9341H139.659V16.7068H140.84V9.3505C140.84 7.21762 139.891 5.84303 138.43 5.84303C137.074 5.84303 136.072 7.2366 136.035 9.15148H137.185C137.28 8.24143 137.749 7.64416 138.393 7.64416C139.173 7.64416 139.611 8.29831 139.611 9.50226V10.3174L138.018 10.4881C136.536 10.6492 135.735 11.7394 135.735 13.6354C135.735 15.5503 136.563 16.8206 137.749 16.8206ZM138.092 15.0669C137.412 15.0669 136.979 14.4791 136.979 13.5785C136.979 12.6496 137.396 12.1092 138.192 12.0239L139.611 11.8628V12.6969C139.611 14.081 138.957 15.0669 138.092 15.0669ZM142.417 20.7263C143.662 20.7263 144.247 19.8732 144.759 17.2851L147 5.98523H145.703L144.2 14.716H144.173L142.67 5.98523H141.336L143.498 16.7448L143.382 17.3989C143.187 18.508 142.87 18.9346 142.306 18.9346C142.206 18.9346 142.011 18.9156 141.932 18.8967V20.6694C142.005 20.7073 142.322 20.7263 142.417 20.7263Z" fill="white"/>
</g>
</g>
<g clip-path="url(#clip5_18_3448)">
<g filter="url(#filter0_f_18_3448)">
<path d="M157.005 20.7944H176.995V0.805176H157.005V20.7944Z" fill="#016FD0"/>
</g>
<path fill-rule="evenodd" clip-rule="evenodd" d="M169.836 11.2897V12.5513H166.628V13.4282H169.759V14.6897H166.628V15.5513H169.836V16.8282L172.436 14.0589L169.836 11.2897ZM168.99 6.56664L167.913 4.11279H164.836L161.682 11.282H164.244V17.6436L172.151 17.6513L173.39 16.2666L174.644 17.6513H176.998V15.6282L175.521 14.0436L176.998 12.4666V10.4743L175.513 10.482V6.65126L174.121 10.482H172.767L171.336 6.63587V10.482H168.105L167.644 9.35895H165.105L164.644 10.482H162.936L165.421 4.88972V4.88202H167.382L169.836 10.4282V4.88202L172.221 4.88972L173.451 8.32818L174.698 4.88202H176.998V4.11279H174.098L173.444 5.95125L172.79 4.11279H168.99V6.56664ZM165.098 11.2666V16.8589H169.836V16.8513H171.79L173.405 15.0666L175.036 16.8513H176.998V16.7743L174.428 14.0589L176.998 11.3051V11.2666H175.059L173.444 13.0359L171.844 11.2666H165.098ZM165.636 8.1051L166.375 6.32818L167.121 8.1051H165.636Z" fill="white"/>
</g>
<defs>
<filter id="filter0_f_18_3448" x="157" y="0.799329" width="20.0009" height="20.001" filterUnits="userSpaceOnUse" color-interpolation-filters="sRGB">
<feFlood flood-opacity="0" result="BackgroundImageFix"/>
<feBlend mode="normal" in="SourceGraphic" in2="BackgroundImageFix" result="shape"/>
<feGaussianBlur stdDeviation="0.00292342" result="effect1_foregroundBlur_18_3448"/>
</filter>
<clipPath id="clip0_18_3448">
<rect width="20" height="20" fill="white" transform="translate(0 0.799805)"/>
</clipPath>
<clipPath id="clip1_18_3448">
<rect width="20" height="20" fill="white" transform="translate(30 0.799805)"/>
</clipPath>
<clipPath id="clip2_18_3448">
<rect width="20" height="20" fill="white" transform="translate(60 0.799805)"/>
</clipPath>
<clipPath id="clip3_18_3448">
<rect width="20" height="20" fill="white" transform="translate(90 0.799805)"/>
</clipPath>
<clipPath id="clip4_18_3448">
<rect width="27" height="20" fill="white" transform="translate(120 0.799805)"/>
</clipPath>
<clipPath id="clip5_18_3448">
<rect width="20" height="20" fill="white" transform="translate(157 0.799805)"/>
</clipPath>
</defs>
</svg>
