<svg width="101" height="69" viewBox="0 0 101 69" fill="none" xmlns="http://www.w3.org/2000/svg">
<path d="M100.097 44.6217C96.7963 44.3934 93.6268 43.7083 90.2567 44.0889C88.4495 44.3042 86.6547 44.6137 84.8797 45.0162C83.3642 45.3483 81.4197 46.2064 79.918 46.068C79.918 45.9781 79.918 44.9677 79.9595 44.9677C82.7968 45.7636 83.3435 41.6045 83.3781 39.8191C83.498 33.7524 83.618 27.6835 83.7379 21.6122C83.7379 19.9582 83.5649 17.9237 82.0425 17.2732C81.3739 17.0421 80.6525 17.0109 79.9664 17.1832C77.4959 17.6192 75.8143 18.9825 73.6206 19.9513C73.5187 19.2875 73.4931 18.6141 73.5445 17.9445C73.5445 17.5915 74.7209 16.685 74.9285 16.4566C76.1249 15.2837 77.4242 14.2206 78.8108 13.2803C82.4438 10.8582 87.1772 9.37729 91.3709 11.2596C97.8966 14.1868 95.9243 21.4738 95.8205 27.1345C95.7234 30.6819 95.8482 34.232 96.1942 37.7638C96.2271 39.0989 96.6217 40.4 97.3361 41.5284C98.2288 42.6564 99.5159 43.3069 100.097 44.6217Z" fill="white"/>
<path d="M77.5524 46.3501C74.2377 46.1217 71.0821 45.4297 67.6981 45.8172C65.8931 46.0325 64.1007 46.342 62.328 46.7445C60.8194 47.0767 58.868 47.9348 57.3663 47.7964C57.3663 47.6995 57.3663 46.6961 57.4078 46.6961C60.2451 47.4919 60.7918 43.3329 60.8264 41.5475C60.9463 35.4808 61.064 29.4118 61.1793 23.3405C61.1793 21.6866 61.0132 19.652 59.4977 19.0015C58.8289 18.7716 58.1078 18.7404 57.4216 18.9116C54.9511 19.3475 53.2695 20.7108 51.0828 21.6796C50.9783 21.0184 50.9504 20.3473 50.9997 19.6797C50.9997 19.3268 52.1761 18.4202 52.3838 18.1919C53.5796 17.0156 54.8815 15.9523 56.2729 15.0155C59.8921 12.5935 64.6325 11.1056 68.833 12.9948C75.3587 15.9221 73.3865 23.209 73.2758 28.8697C73.1832 32.4147 73.3056 35.962 73.6425 39.4922C73.7048 40.8248 74.1204 42.1169 74.8466 43.236C75.6771 44.3709 76.9711 45.0214 77.5524 46.3501Z" fill="white"/>
<path d="M54.7799 47.5766C54.7384 48.4831 50.9254 48.836 50.2334 48.9606C47.4099 49.5834 44.1436 50.2408 41.5762 48.5177C39.2165 46.9261 38.1161 44.0542 38.1161 41.293C38.1161 33.2103 38.1162 25.1344 38.1854 17.0724L50.9738 14.4912C50.5863 14.5673 50.9738 26.5046 50.9738 27.6395C50.9738 32.5529 50.9738 37.4593 50.9738 42.3588C50.9738 43.9504 51.1953 45.895 52.6554 46.5109C53.1744 46.7531 54.8145 46.8984 54.7799 47.5766Z" fill="white"/>
<path d="M34.8149 13.2175C34.8149 13.3905 34.8149 15.1206 34.8149 15.259L54.8903 11.4044V9.7782L51.015 10.4218V0C51.015 0 50.1431 0 50.0669 0C49.2434 0.283727 48.5514 2.30442 48.0947 3.0172C47.2939 4.23338 46.4057 5.38979 45.4373 6.47728C43.5002 8.66895 41.2499 10.5625 38.7594 12.0965C37.5622 12.8231 36.192 13.4805 34.8149 13.2314V13.2175Z" fill="white"/>
<path d="M16.3329 15.8123C12.8785 16.0434 9.57021 17.2938 6.82662 19.4055C4.08303 21.5172 2.0274 24.3952 0.919788 27.6754C-0.187827 30.9556 -0.297656 34.4906 0.604194 37.8332C1.50604 41.1758 3.37905 44.1758 5.98626 46.4538C8.59347 48.7317 11.8177 50.1851 15.2511 50.6302C18.6846 51.0753 22.1729 50.4921 25.2747 48.9543C28.3766 47.4165 30.9527 44.9932 32.677 41.991C34.4014 38.9889 35.1966 35.5427 34.962 32.0885C34.6477 27.4606 32.5091 23.1468 29.016 20.0949C25.5229 17.043 20.9611 15.5026 16.3329 15.8123ZM18.1183 42.1712C16.3583 42.289 14.6028 41.8823 13.0739 41.0025C11.5449 40.1227 10.3112 38.8094 9.52855 37.2285C8.74594 35.6476 8.44962 33.8702 8.67705 32.1209C8.90449 30.3716 9.64547 28.7291 10.8063 27.4009C11.9672 26.0727 13.4957 25.1185 15.1988 24.6589C16.9019 24.1994 18.703 24.2551 20.3744 24.819C22.0458 25.383 23.5125 26.4298 24.5891 27.8272C25.6656 29.2246 26.3036 30.9098 26.4225 32.6698C26.5015 33.839 26.3493 35.0123 25.9747 36.1227C25.6 37.2331 25.0103 38.2588 24.2391 39.1411C23.4679 40.0235 22.5304 40.7452 21.4802 41.2652C20.43 41.7851 19.2876 42.0929 18.1183 42.1712Z" fill="white"/>
<path d="M31.3827 50.0607C30.4895 50.1274 29.6368 50.4604 28.9348 51.0168C28.2329 51.5732 27.7139 52.3273 27.4451 53.1817C26.847 54.9357 25.7437 56.4738 24.2738 57.6025C22.8039 58.7312 21.0332 59.4001 19.1842 59.5251C17.3351 59.6501 15.4905 59.2256 13.8821 58.305C12.2737 57.3844 10.9734 56.0088 10.1447 54.3512C9.76955 53.5319 9.15455 52.8458 8.381 52.3836C7.60746 51.9215 6.71184 51.7051 5.81262 51.763H5.60502C4.91019 51.7949 4.23352 51.9952 3.63331 52.3467C3.0331 52.6982 2.52734 53.1903 2.15962 53.7808C1.79189 54.3712 1.57322 55.0421 1.52244 55.7358C1.47166 56.4295 1.59029 57.1252 1.86812 57.7628C3.43275 61.1248 5.98342 63.9311 9.18117 65.8087C12.3789 67.6863 16.0723 68.5464 19.7706 68.2746C23.467 68.0488 27.0077 66.7058 29.924 64.4234C32.8403 62.141 34.9948 59.0268 36.1022 55.493C36.2925 54.8234 36.3171 54.1175 36.1737 53.4363C36.0303 52.755 35.7233 52.1189 35.2791 51.5828C34.835 51.0468 34.2671 50.6268 33.6244 50.3592C32.9818 50.0916 32.2836 49.9844 31.5903 50.0468L31.3827 50.0607Z" fill="white"/>
</svg>
