<svg width="170" height="21" viewBox="0 0 170 21" fill="none" xmlns="http://www.w3.org/2000/svg">
<g clip-path="url(#clip0_18_3431)">
<path fill-rule="evenodd" clip-rule="evenodd" d="M69.8572 20.2284C74.9855 20.2284 79.1429 16.0711 79.1429 10.9427C79.1429 5.81434 74.9855 1.65698 69.8572 1.65698C64.7288 1.65698 60.5715 5.81434 60.5715 10.9427C60.5715 16.0711 64.7288 20.2284 69.8572 20.2284ZM72.4278 4.4643H66.7683C65.7319 4.4643 64.7379 4.87601 64.0051 5.60886C63.2722 6.34171 62.8605 7.33567 62.8605 8.37207V14.0316C62.8605 16.1876 64.6123 17.9394 66.7683 17.9394H72.4278C73.4643 17.9394 74.4582 17.5277 75.1911 16.7948C75.9239 16.062 76.3356 15.068 76.3356 14.0316V8.37207C76.3356 6.21606 74.5839 4.4643 72.4278 4.4643ZM64.9185 6.52222C65.3733 6.06735 65.9903 5.81181 66.6336 5.81181H72.5626C73.9034 5.81181 74.9881 6.89655 74.9881 8.23732V14.1664C74.9881 14.8096 74.7326 15.4266 74.2777 15.8815C73.8228 16.3363 73.2059 16.5919 72.5626 16.5919H66.6336C65.2928 16.5919 64.208 15.5071 64.208 14.1664V8.23732C64.208 7.59403 64.4636 6.9771 64.9185 6.52222ZM73.7308 7.06911C73.5729 6.91117 73.3586 6.82244 73.1353 6.82244C72.9119 6.82244 72.6977 6.91117 72.5398 7.06911C72.3818 7.22705 72.2931 7.44127 72.2931 7.66463C72.2931 7.88799 72.3818 8.10221 72.5398 8.26015C72.6977 8.41809 72.9119 8.50682 73.1353 8.50682C73.3586 8.50682 73.5729 8.41809 73.7308 8.26015C73.8887 8.10221 73.9775 7.88799 73.9775 7.66463C73.9775 7.44127 73.8887 7.22705 73.7308 7.06911ZM71.9802 8.81976C71.3484 8.18799 70.4915 7.83307 69.5981 7.83307C68.7046 7.83307 67.8478 8.18799 67.216 8.81976C66.5842 9.45153 66.2293 10.3084 66.2293 11.2018C66.2293 12.0953 66.5842 12.9522 67.216 13.5839C67.8478 14.2157 68.7046 14.5706 69.5981 14.5706C70.4915 14.5706 71.3484 14.2157 71.9802 13.5839C72.6119 12.9522 72.9668 12.0953 72.9668 11.2018C72.9668 10.3084 72.6119 9.45153 71.9802 8.81976ZM68.1688 9.77259C68.5479 9.39353 69.062 9.18058 69.5981 9.18058C70.1341 9.18058 70.6483 9.39353 71.0273 9.77259C71.4064 10.1517 71.6193 10.6658 71.6193 11.2018C71.6193 11.7379 71.4064 12.252 71.0273 12.6311C70.6483 13.0101 70.1341 13.2231 69.5981 13.2231C69.062 13.2231 68.5479 13.0101 68.1688 12.6311C67.7898 12.252 67.5768 11.7379 67.5768 11.2018C67.5768 10.6658 67.7898 10.1517 68.1688 9.77259Z" fill="white"/>
</g>
<g clip-path="url(#clip1_18_3431)">
<path d="M49.1429 10.966C49.1429 5.82741 44.9829 1.65698 39.8572 1.65698C34.7315 1.65698 30.5715 5.82741 30.5715 10.966C30.5715 15.4715 33.7658 19.223 38 20.0888V13.7587H36.1429V10.966H38V8.63872C38 6.84209 39.4579 5.38058 41.25 5.38058H43.5715V8.17327H41.7143C41.2036 8.17327 40.7858 8.59218 40.7858 9.10417V10.966H43.5715V13.7587H40.7858V20.2284C45.475 19.763 49.1429 15.7973 49.1429 10.966Z" fill="white"/>
</g>
<g clip-path="url(#clip2_18_3431)">
<path d="M99.8572 1.65698C94.7287 1.65698 90.5714 5.81427 90.5714 10.9427C90.5714 16.0711 94.7287 20.2284 99.8572 20.2284C104.986 20.2284 109.143 16.0711 109.143 10.9427C109.143 5.81427 104.986 1.65698 99.8572 1.65698ZM103.634 9.26353C103.638 9.34284 103.639 9.42216 103.639 9.49954C103.639 11.9177 101.8 14.7044 98.4362 14.7044C97.4422 14.706 96.4688 14.4205 95.6331 13.8822C95.7753 13.8996 95.9214 13.9064 96.0694 13.9064C96.9264 13.9064 97.7147 13.6152 98.3405 13.1239C97.9591 13.1164 97.5896 12.9901 97.2834 12.7626C96.9772 12.5351 96.7496 12.2178 96.6323 11.8548C96.9062 11.9069 97.1883 11.896 97.4574 11.8229C97.0434 11.7392 96.6712 11.5149 96.4037 11.1881C96.1363 10.8612 95.9901 10.4519 95.99 10.0296V10.0074C96.2367 10.1437 96.5191 10.2269 96.819 10.2366C96.4309 9.97827 96.1562 9.58144 96.051 9.12727C95.9458 8.67311 96.0181 8.19592 96.2531 7.79329C96.7125 8.35817 97.2855 8.82028 97.9348 9.14969C98.5841 9.47911 99.2954 9.66849 100.023 9.70557C99.9301 9.31316 99.9699 8.9012 100.136 8.53374C100.302 8.16627 100.584 7.86389 100.94 7.67361C101.295 7.48332 101.703 7.41579 102.101 7.48152C102.499 7.54724 102.864 7.74254 103.139 8.03704C103.548 7.95606 103.941 7.80592 104.3 7.59307C104.163 8.01686 103.878 8.37672 103.496 8.60579C103.859 8.56212 104.213 8.46465 104.546 8.31658C104.301 8.68404 103.992 9.00473 103.634 9.26353Z" fill="white"/>
</g>
<g clip-path="url(#clip3_18_3431)">
<path d="M9.85719 1.65698C4.72876 1.65698 0.571472 5.81427 0.571472 10.9427C0.571472 16.0711 4.72876 20.2284 9.85719 20.2284C14.9856 20.2284 19.1429 16.0711 19.1429 10.9427C19.1429 5.81427 14.9856 1.65698 9.85719 1.65698ZM7.58412 14.7914H5.70376V8.74024H7.58412V14.7914ZM6.63233 7.99738C6.03844 7.99738 5.65443 7.57662 5.65443 7.05624C5.65443 6.52521 6.05004 6.11703 6.65652 6.11703C7.26299 6.11703 7.63442 6.52521 7.64603 7.05624C7.64603 7.57662 7.26299 7.99738 6.63233 7.99738ZM14.4517 14.7914H12.5713V11.4379C12.5713 10.6574 12.2986 10.1273 11.6186 10.1273C11.0992 10.1273 10.7906 10.4861 10.6542 10.8315C10.6039 10.9543 10.5913 11.1284 10.5913 11.3016V14.7905H8.71001V10.6699C8.71001 9.9145 8.68583 9.28288 8.66068 8.73927H10.2944L10.3805 9.57982H10.4182C10.6658 9.18518 11.2723 8.60289 12.2869 8.60289C13.5241 8.60289 14.4517 9.43183 14.4517 11.2135V14.7914Z" fill="white"/>
</g>
<g clip-path="url(#clip4_18_3431)">
<path fill-rule="evenodd" clip-rule="evenodd" d="M129.857 20.2284C134.986 20.2284 139.143 16.0711 139.143 10.9427C139.143 5.81434 134.986 1.65698 129.857 1.65698C124.729 1.65698 120.571 5.81434 120.571 10.9427C120.571 16.0711 124.729 20.2284 129.857 20.2284ZM132.701 3.51413C132.701 4.34901 133.004 5.15554 133.554 5.78356C134.649 7.04703 136.162 6.9746 136.162 6.9746V9.46132C134.92 9.46345 133.709 9.07491 132.701 8.35075V13.4127C132.701 15.9477 130.649 17.9998 128.122 17.9998C125.764 17.9998 123.543 16.0926 123.543 13.4127C123.543 10.6604 125.973 8.50365 128.75 8.87384V11.4169C127.374 10.9904 126.038 12.0285 126.038 13.4127C126.038 14.5716 126.987 15.5051 128.13 15.5051C128.67 15.505 129.19 15.2952 129.578 14.92C129.967 14.5447 130.195 14.0332 130.214 13.4932V3.51413H132.701Z" fill="white"/>
</g>
<g clip-path="url(#clip5_18_3431)">
<path d="M161.408 10.7812L159.235 9.76747C159.046 9.67945 158.89 9.77811 158.89 9.98801V11.8974C158.89 12.1073 159.046 12.2059 159.235 12.1179L161.407 11.1042C161.597 11.0152 161.597 10.8702 161.408 10.7812ZM159.857 1.65698C154.729 1.65698 150.571 5.81427 150.571 10.9427C150.571 16.0711 154.729 20.2284 159.857 20.2284C164.986 20.2284 169.143 16.0711 169.143 10.9427C169.143 5.81427 164.986 1.65698 159.857 1.65698ZM159.857 14.715C155.104 14.715 155.021 14.2865 155.021 10.9427C155.021 7.59887 155.104 7.17037 159.857 7.17037C164.61 7.17037 164.693 7.59887 164.693 10.9427C164.693 14.2865 164.61 14.715 159.857 14.715Z" fill="white"/>
</g>
<defs>
<clipPath id="clip0_18_3431">
<rect width="20" height="20" fill="white" transform="translate(60 0.799805)"/>
</clipPath>
<clipPath id="clip1_18_3431">
<rect width="20" height="20" fill="white" transform="translate(30 0.799805)"/>
</clipPath>
<clipPath id="clip2_18_3431">
<rect width="20" height="20" fill="white" transform="translate(90 0.799805)"/>
</clipPath>
<clipPath id="clip3_18_3431">
<rect width="20" height="20" fill="white" transform="translate(0 0.799805)"/>
</clipPath>
<clipPath id="clip4_18_3431">
<rect width="20" height="20" fill="white" transform="translate(120 0.799805)"/>
</clipPath>
<clipPath id="clip5_18_3431">
<rect width="20" height="20" fill="white" transform="translate(150 0.799805)"/>
</clipPath>
</defs>
</svg>
